<?xml version="1.0" encoding="utf-8"?>
<svg version="1.1" id="Capa_1" x="0px" y="0px" viewBox="0 0 512 512" style="enable-background:new 0 0 512 512;" xmlns="http://www.w3.org/2000/svg">
  <path style="fill:#FD003A;" d="M 256 0 C 156.698 0 76 80.7 76 180 C 76 213.6 85.302 246.301 103.001 274.501 L 243.798 504.915 C 246.2 508.815 249.8 511.216 254.001 511.816 C 259.699 512.715 266.002 510.316 269.301 504.616 L 410.501 272.1 C 427.299 244.501 436 212.401 436 180 C 436 80.7 355.302 0 256 0 Z"/>
  <path style="fill:#E50027;" d="M 256 0 L 256 511.991 C 261.119 512.11 266.383 509.656 269.3 504.616 L 410.5 272.1 C 427.299 244.501 436 212.401 436 180 C 436 80.7 355.302 0 256 0 Z"/>
  <g/>
  <g/>
  <g/>
  <g/>
  <g/>
  <g/>
  <g/>
  <g/>
  <g/>
  <g/>
  <g/>
  <g/>
  <g/>
  <g/>
  <g/>
  <g transform="matrix(0.828101, 0, 0, 0.828101, -691.237305, -412.1651)" style="">
    <path d="M1274.9,703.6c-35.3-17.4-65.1,7.4-65.1,7.4l-6.8-7.4c0,0,7.4-13.6,21.1-29.1c13.6-15.5,26-44,26.7-48.4 c0.6-4.3-12.4-27.9-19.2-32.2c-6.8-4.3-0.6-9.3,0-14.3c0.6-5-11.2-22.9-16.1-20.5c-5,2.5-14.9-8.7-17.4-7.8 c-2.5,0.8-24.8-9.5-34.1-8.9c-9.3,0.6-13,3.7-16.7,8.9s-6.2,13.4-6.2,13.4h-7.4c0,0,6.8-15.5-9.3-24.2s-37.8,6.2-42.8,10.5 c-5,4.3-21.1,13.6-21.1,13.6c-7.5,4.5,12.4,1.9,18,3.7c5.6,1.9,16.1,22.9,16.1,22.9s0,0-3.7,4.3c-3.7,4.3,13,13.6,14.3,8.7 c1.2-5,10.5-8.1,10.5-8.1s1.2,11.8,1.2,14.3c0,2.5-24.8,32.2-26.7,36.6c-1.9,4.3-13,8.7-20.5,16.1c-7.4,7.4-13,3.7-14.9,9.3 c-1.9,5.6,3.1,9.9,3.1,12.4c0,2.5,6.2,1.9,12.4-1.2c6.2-3.1,8.7-1.2,8.7-1.2l-8.7,26.7l-6.2-2.5l-7.6,23.4c0,0-52.6-5.3-74.9,31.2 c-23.2,37.8,0.6,85.6,39.7,93c39.1,7.4,75.6-13,83.7-52.1c8.1-39.1-32.2-63.9-32.2-63.9l13-22.9l-6.2-2.5c0,0,3.7-7.4,6.8-5 c3.1,2.5,55.8,67,55.8,67s-1.9,3.7-6.2,7.4c-4.3,3.7-13.6,3.7-10.5,8.1c3.1,4.3,21.1,3.7,31,7.4c9.9,3.7,13.6,9.9,25.4,12.4 c11.8,2.5,6.8-11.8,6.8-11.8s0,0,4.3,6.2c4.3,6.2,12.4,2.5,12.4,2.5s8.4,17.8,42.8,23.6c31,5.2,58.3-13.6,66.3-44 S1310.3,721,1274.9,703.6z M1089.6,810.9c-13.5,31.6-44,37.9-69.5,28.6c-25.4-9.3-41.5-44.1-25.4-71.4s58.4-23.2,58.4-23.2 l-12.4,35.6c0,0-12.6,5.7-9.5,15.2c3.1,9.6,14.9,10.8,22.3,7.1c7.4-3.7,10.5-4.3,10.5-4.3l-3.7-18.6l-3.1,0.6l9.1-29.4 C1066.4,751.1,1105.9,772.7,1089.6,810.9z M1126.8,624.3c6.2-8.7,11.8-14.3,15.5-13.6c3.7,0.6-21.7,29.8-34.1,36.6 C1108.2,647.2,1120.6,633,1126.8,624.3z M1157.8,735.3l-27.9-6.2l2.3,8.2l2.6,3.7l19.9,7.7l-0.6,19.5l-19.3-27.2l-1.8-0.7l-0.8-3 l-19-26.8l48.4,19.2L1157.8,735.3z M1178.8,650.3c-3.7,5-16.7,15.5-19.8,18.6c-3.1,3.1-11.8,1.9-16.4,3.1 c-4.6,1.2-5.3,11.8-5.9,18.6c-0.6,6.8,8.8,19.8,8.8,19.8l-54.7-23.6v-6.8c4.3,0,29.1-15.5,30.4-16.2c1.2-0.7,6.8-6.2,20.8-16.7 s26.4-29.8,26.4-29.8c14.9-1.2,24.8,14.3,24.8,14.3S1182.6,645.4,1178.8,650.3z M1193.1,739.3c-4.3,9.6-2.5,36.3-2.5,36.3l-5,6.5 c0,0-1.8-15.1-0.6-22.6c1.2-7.4,0-32.9,0-32.9h3.8C1188.9,726.6,1197.4,729.7,1193.1,739.3z M1209.2,781.2c-6.8-5.6,0-21.7,0-21.7 C1214.2,764.4,1216,786.7,1209.2,781.2z M1276.8,814.6c-23.6,8.7-51.5-8.1-51.5-12.4c0-4.3,13-12.4,13-12.4s10.5-1.9,13,2.5 c2.5,4.3,6.8,5,5.6,0c-1.2-5-3.7-6.8-2.5-9.9c1.2-3.1,6.3-2.5,5.9-5c-0.4-2.5,17.5-12.1,12.8-20.5c-4.7-8.4-18.1-7.1-23.7-6.5 c-5.6,0.6-24.8,2.8-24.8,2.8l-7.7-26.4c0,0,22.7-16.7,46.4-11.3c24.5,5.6,36.3,24.2,38.1,43.3 C1304.1,785.1,1300.4,806,1276.8,814.6z" style="fill: rgb(255, 255, 255);"/>
    <path d="M1028.2,754.1c0,0-54.9,13-23.3,69.8C1004.9,823.9,984,773.7,1028.2,754.1z" style="fill: rgb(255, 255, 255);"/>
    <path d="M1254.7,724.4c0,0,50.7-5.1,38.1,64.6C1292.8,789,1298.4,731.8,1254.7,724.4z" style="fill: rgb(255, 255, 255);"/>
  </g>
</svg>